<svg xmlns="http://www.w3.org/2000/svg" viewBox="0 0 1280 720" role="img" aria-labelledby="title desc">
  <title id="title">Ascent mid control tactical screenshot placeholder</title>
  <desc id="desc">A stylized tactical board showing mid control routes toward both sites.</desc>
  <defs>
    <linearGradient id="bg" x1="0" y1="0" x2="1" y2="1">
      <stop offset="0" stop-color="#18202c"/>
      <stop offset="1" stop-color="#303a4a"/>
    </linearGradient>
    <filter id="shadow" x="-20%" y="-20%" width="140%" height="140%">
      <feDropShadow dx="0" dy="10" stdDeviation="12" flood-color="#000" flood-opacity=".35"/>
    </filter>
    <marker id="arrow" markerWidth="12" markerHeight="12" refX="10" refY="6" orient="auto">
      <path d="M0 0L12 6 0 12z" fill="#5a8cff"/>
    </marker>
  </defs>
  <rect width="1280" height="720" fill="url(#bg)"/>
  <g opacity=".1" stroke="#fff">
    <path d="M0 90h1280M0 180h1280M0 270h1280M0 360h1280M0 450h1280M0 540h1280M0 630h1280"/>
    <path d="M160 0v720M320 0v720M480 0v720M640 0v720M800 0v720M960 0v720M1120 0v720"/>
  </g>
  <g filter="url(#shadow)" transform="translate(190 94)">
    <path d="M78 60h225l65 73h155l63-73h230l55 126-65 89 63 104-62 157H583l-55-67H348l-55 67H72L31 391l55-108-51-97z" fill="#d8dce3" stroke="#f6f7fa" stroke-width="12"/>
    <path d="M78 60h225l65 73-59 112H86L35 186z" fill="#aeb9ca"/>
    <path d="M586 60h230l55 126-65 89H578l-55-142z" fill="#b9c2d2"/>
    <path d="M86 283h223l54 83-70 170H72L31 391z" fill="#a6b2c4"/>
    <path d="M578 275h228l63 104-62 157H583l-55-67z" fill="#aeb9cc"/>
    <path d="M309 245h269v75H309z" fill="#76869f"/>
    <path d="M363 320h165v149H348z" fill="#8291a8"/>
    <g fill="#344158" font-family="Arial, sans-serif" font-size="31" font-weight="700">
      <text x="160" y="170">A</text>
      <text x="682" y="170">B</text>
      <text x="405" y="405">MID</text>
      <text x="680" y="430">MARKET</text>
    </g>
  </g>
  <path d="M604 565C608 484 611 415 616 330" fill="none" stroke="#5a8cff" stroke-width="18" stroke-linecap="round" stroke-dasharray="12 22" marker-end="url(#arrow)"/>
  <path d="M617 333C521 302 442 272 367 231" fill="none" stroke="#5a8cff" stroke-width="14" stroke-linecap="round" stroke-dasharray="10 18" marker-end="url(#arrow)"/>
  <path d="M621 333C723 302 805 271 886 229" fill="none" stroke="#5a8cff" stroke-width="14" stroke-linecap="round" stroke-dasharray="10 18" marker-end="url(#arrow)"/>
  <g fill="#5a8cff" stroke="#fff" stroke-width="7">
    <circle cx="604" cy="566" r="22"/>
    <circle cx="618" cy="333" r="22"/>
  </g>
  <g font-family="Arial, sans-serif">
    <rect x="38" y="35" width="327" height="76" fill="#111722" opacity=".92"/>
    <text x="66" y="69" fill="#6d99ff" font-size="18" font-weight="700" letter-spacing="3">ROUND NOTE / ASCENT</text>
    <text x="66" y="94" fill="#fff" font-size="15">MID CONTROL  →  TWO OPTIONS</text>
    <rect x="987" y="35" width="255" height="76" fill="#111722" opacity=".92"/>
    <text x="1015" y="69" fill="#fff" font-size="16" font-weight="700">TACTICAL VIEW</text>
    <text x="1015" y="94" fill="#aab3c2" font-size="13">SCREENSHOT PLACEHOLDER</text>
  </g>
  <path d="M0 682h1280" stroke="#5a8cff" stroke-width="7"/>
</svg>
