<svg xmlns="http://www.w3.org/2000/svg" viewBox="0 0 1280 720" role="img" aria-labelledby="title desc">
  <title id="title">Lotus tactical screenshot placeholder</title>
  <desc id="desc">A stylized tactical board showing an attack rotation from A to C.</desc>
  <defs>
    <linearGradient id="bg" x1="0" y1="0" x2="1" y2="1">
      <stop offset="0" stop-color="#1c2420"/>
      <stop offset="1" stop-color="#303831"/>
    </linearGradient>
    <filter id="shadow" x="-20%" y="-20%" width="140%" height="140%">
      <feDropShadow dx="0" dy="10" stdDeviation="12" flood-color="#000" flood-opacity=".35"/>
    </filter>
    <marker id="arrow" markerWidth="12" markerHeight="12" refX="10" refY="6" orient="auto">
      <path d="M0 0L12 6 0 12z" fill="#ff554c"/>
    </marker>
  </defs>
  <rect width="1280" height="720" fill="url(#bg)"/>
  <g opacity=".12" stroke="#fff">
    <path d="M0 90h1280M0 180h1280M0 270h1280M0 360h1280M0 450h1280M0 540h1280M0 630h1280"/>
    <path d="M160 0v720M320 0v720M480 0v720M640 0v720M800 0v720M960 0v720M1120 0v720"/>
  </g>
  <g filter="url(#shadow)" transform="translate(225 88)">
    <path d="M118 62h185l57 70h124l52-49h181l45 83-55 119 56 92-61 153H530l-54 67H298l-36-75H96L40 421l55-114-38-95z" fill="#d9dbd0" stroke="#f8f7ee" stroke-width="12"/>
    <path d="M118 62h185l57 70-69 70H133L57 212z" fill="#aeb7aa"/>
    <path d="M536 83h181l45 83-55 119H548l-57-92z" fill="#b7c0b2"/>
    <path d="M96 307h175l58 70-67 145H96L40 421z" fill="#a8b4a7"/>
    <path d="M548 285h159l56 92-61 153H530l-54-104z" fill="#aab6aa"/>
    <path d="M291 202h257v83H271z" fill="#7f8e83"/>
    <path d="M271 285h277l-72 141H329l-58-49z" fill="#8c9a8f"/>
    <g fill="#34403a" font-family="Arial, sans-serif" font-size="31" font-weight="700">
      <text x="150" y="151">A</text>
      <text x="635" y="180">B</text>
      <text x="143" y="432">C</text>
      <text x="615" y="422">SPAWN</text>
    </g>
  </g>
  <path d="M395 212C530 145 658 180 714 280S755 470 525 506" fill="none" stroke="#ff554c" stroke-width="18" stroke-linecap="round" stroke-dasharray="12 22" marker-end="url(#arrow)"/>
  <g fill="#ff554c" stroke="#fff" stroke-width="7">
    <circle cx="390" cy="213" r="22"/>
    <circle cx="526" cy="506" r="22"/>
  </g>
  <g font-family="Arial, sans-serif">
    <rect x="38" y="35" width="327" height="76" fill="#111614" opacity=".92"/>
    <text x="66" y="69" fill="#ff554c" font-size="18" font-weight="700" letter-spacing="3">ROUND NOTE / LOTUS</text>
    <text x="66" y="94" fill="#fff" font-size="15">A SHOW  →  C ROTATE</text>
    <rect x="987" y="35" width="255" height="76" fill="#111614" opacity=".92"/>
    <text x="1015" y="69" fill="#fff" font-size="16" font-weight="700">TACTICAL VIEW</text>
    <text x="1015" y="94" fill="#9eaaa3" font-size="13">SCREENSHOT PLACEHOLDER</text>
  </g>
  <path d="M0 682h1280" stroke="#ff554c" stroke-width="7"/>
</svg>
